<?xml version="1.0" encoding="UTF-8" standalone="no"?>
<!-- Created with Inkscape (http://www.inkscape.org/) -->

<svg
   xmlns:dc="http://purl.org/dc/elements/1.1/"
   xmlns:cc="http://creativecommons.org/ns#"
   xmlns:rdf="http://www.w3.org/1999/02/22-rdf-syntax-ns#"
   xmlns:svg="http://www.w3.org/2000/svg"
   xmlns="http://www.w3.org/2000/svg"
   xmlns:xlink="http://www.w3.org/1999/xlink"
   xmlns:sodipodi="http://sodipodi.sourceforge.net/DTD/sodipodi-0.dtd"
   xmlns:inkscape="http://www.inkscape.org/namespaces/inkscape"
   width="491.42899mm"
   height="297mm"
   viewBox="0 0 1741.2838 1052.3622"
   id="svg4227"
   version="1.1"
   inkscape:version="0.91 r13725"
   sodipodi:docname="2.svg">
  <defs
     id="defs4229" />
  <sodipodi:namedview
     id="base"
     pagecolor="#ffffff"
     bordercolor="#666666"
     borderopacity="1.0"
     inkscape:pageopacity="0.0"
     inkscape:pageshadow="2"
     inkscape:zoom="0.35"
     inkscape:cx="1019.4785"
     inkscape:cy="520"
     inkscape:document-units="px"
     inkscape:current-layer="layer1"
     showgrid="false"
     inkscape:window-width="1305"
     inkscape:window-height="744"
     inkscape:window-x="61"
     inkscape:window-y="24"
     inkscape:window-maximized="1" />
  <metadata
     id="metadata4232">
    <rdf:RDF>
      <cc:Work
         rdf:about="">
        <dc:format>image/svg+xml</dc:format>
        <dc:type
           rdf:resource="http://purl.org/dc/dcmitype/StillImage" />
        <dc:title></dc:title>
      </cc:Work>
    </rdf:RDF>
  </metadata>
  <g
     inkscape:label="Layer 1"
     inkscape:groupmode="layer"
     id="layer1">
    <rect
       style="fill:#999999"
       id="rect4459"
       width="1345.7142"
       height="468.57144"
       x="197.14285"
       y="315.21933" />
    <path
       style="fill:#999999"
       id="path4461"
       sodipodi:type="arc"
       sodipodi:cx="431.42856"
       sodipodi:cy="143.79076"
       sodipodi:rx="68.571426"
       sodipodi:ry="68.571426"
       sodipodi:start="0"
       sodipodi:end="6.2812829"
       sodipodi:open="true"
       d="m 499.99998,143.79076 a 68.571426,68.571426 0 0 1 -68.53881,68.57141 68.571426,68.571426 0 0 1 -68.60401,-68.50619 68.571426,68.571426 0 0 1 68.47356,-68.63658 68.571426,68.571426 0 0 1 68.66914,68.44091" />
    <path
       style="fill:#999999"
       id="path4463"
       sodipodi:type="arc"
       sodipodi:cx="1158.5714"
       sodipodi:cy="170.93361"
       sodipodi:rx="124.28571"
       sodipodi:ry="81.428574"
       sodipodi:start="0"
       sodipodi:end="6.2812829"
       sodipodi:open="true"
       d="m 1282.8571,170.93361 a 124.28571,81.428574 0 0 1 -124.2266,81.42856 124.28571,81.428574 0 0 1 -124.3447,-81.35111 124.28571,81.428574 0 0 1 124.1083,-81.505942 124.28571,81.428574 0 0 1 124.4628,81.273582" />
    <path
       style="fill:#999999"
       id="path4465"
       sodipodi:type="arc"
       sodipodi:cx="1641.4286"
       sodipodi:cy="569.50507"
       sodipodi:rx="21.428572"
       sodipodi:ry="105.71429"
       sodipodi:start="0"
       sodipodi:end="6.2812829"
       sodipodi:open="true"
       d="M 1662.8572,569.50507 A 21.428572,105.71429 0 0 1 1641.4388,675.21934 21.428572,105.71429 0 0 1 1620,569.60562 a 21.428572,105.71429 0 0 1 21.398,-105.81473 21.428572,105.71429 0 0 1 21.4591,105.51306" />
    <a xlink:href="">
    <path 
       style="fill:#999999"
       id="path4467"
       sodipodi:type="arc"
       sodipodi:cx="1340"
       sodipodi:cy="876.64789"
       sodipodi:rx="57.142857"
       sodipodi:ry="24.285715"
       sodipodi:start="0"
       sodipodi:end="6.2812829"
       sodipodi:open="true"
       d="m 1397.1429,876.64789 a 57.142857,24.285715 0 0 1 -57.1157,24.28571 57.142857,24.285715 0 0 1 -57.17,-24.26261 57.142857,24.285715 0 0 1 57.0613,-24.30879 57.142857,24.285715 0 0 1 57.2243,24.23949"
       onclick="#800000"
       onmouseover="#800000"
       onmouseout="#800000" /></a>
    <path
       style="fill:#999999"
       id="path4469"
       sodipodi:type="arc"
       sodipodi:cx="821.42859"
       sodipodi:cy="925.2193"
       sodipodi:rx="67.14286"
       sodipodi:ry="55.714287"
       sodipodi:start="0"
       sodipodi:end="6.2812829"
       sodipodi:open="true"
       d="m 888.57145,925.2193 a 67.14286,55.714287 0 0 1 -67.11093,55.71428 67.14286,55.714287 0 0 1 -67.17476,-55.66129 67.14286,55.714287 0 0 1 67.04703,-55.76722 67.14286,55.714287 0 0 1 67.23854,55.60824" />
    <path
       style="fill:#999999"
       id="path4471"
       sodipodi:type="arc"
       sodipodi:cx="355.71429"
       sodipodi:cy="935.2193"
       sodipodi:rx="15.714286"
       sodipodi:ry="102.85714"
       sodipodi:start="0"
       sodipodi:end="6.2812829"
       sodipodi:open="true"
       d="m 371.42858,935.2193 a 15.714286,102.85714 0 0 1 -15.70681,102.8571 15.714286,102.85714 0 0 1 -15.72175,-102.75926 15.714286,102.85714 0 0 1 15.69185,-102.95488 15.714286,102.85714 0 0 1 15.73668,102.66136" />
    <path
       style="fill:#999999"
       id="path4473"
       sodipodi:type="arc"
       sodipodi:cx="58.57143"
       sodipodi:cy="675.2193"
       sodipodi:rx="21.428572"
       sodipodi:ry="197.14285"
       sodipodi:start="0"
       sodipodi:end="6.2807947"
       d="M 80.000002,675.2193 A 21.428572,197.14285 0 0 1 58.584237,872.36212 21.428572,197.14285 0 0 1 37.142874,675.45494 21.428572,197.14285 0 0 1 58.53301,478.07676 21.428572,197.14285 0 0 1 79.999941,674.74801 L 58.57143,675.2193 Z" />
  </g>
</svg>
