<?xml version="1.0" encoding="UTF-8" standalone="no"?>
<svg
   xmlns:dc="http://purl.org/dc/elements/1.1/"
   xmlns:cc="http://creativecommons.org/ns#"
   xmlns:rdf="http://www.w3.org/1999/02/22-rdf-syntax-ns#"
   xmlns:svg="http://www.w3.org/2000/svg"
   xmlns="http://www.w3.org/2000/svg"
   xmlns:sodipodi="http://sodipodi.sourceforge.net/DTD/sodipodi-0.dtd"
   xmlns:inkscape="http://www.inkscape.org/namespaces/inkscape"
   id="svg2"
   height="302.86"
   width="491.43"
   version="1.1"
   viewBox="0 0 491.42898 302.85698"
   inkscape:version="0.91 r13725"
   sodipodi:docname="drawing2.svg">
  <metadata
     id="metadata4330">
    <rdf:RDF>
      <cc:Work
         rdf:about="">
        <dc:format>image/svg+xml</dc:format>
        <dc:type
           rdf:resource="http://purl.org/dc/dcmitype/StillImage" />
      </cc:Work>
    </rdf:RDF>
  </metadata>
  <defs
     id="defs4328" />
  <sodipodi:namedview
     pagecolor="#ffffff"
     bordercolor="#666666"
     borderopacity="1"
     objecttolerance="10"
     gridtolerance="10"
     guidetolerance="10"
     inkscape:pageopacity="0"
     inkscape:pageshadow="2"
     inkscape:window-width="1305"
     inkscape:window-height="744"
     id="namedview4326"
     showgrid="true"
     inkscape:zoom="1.2087174"
     inkscape:cx="228.32151"
     inkscape:cy="114.40496"
     inkscape:window-x="61"
     inkscape:window-y="24"
     inkscape:window-maximized="1"
     inkscape:current-layer="svg2"
     inkscape:snap-grids="false"
     inkscape:snap-to-guides="false"
     inkscape:snap-object-midpoints="false"
     inkscape:snap-others="false">
    <inkscape:grid
       type="xygrid"
       id="grid4446" />
  </sodipodi:namedview>
  <g
     id="g4569"
     style="fill:#808080"
     onmouseover="#FF7F2A">
    <rect
       y="87.850876"
       x="100.14598"
       height="115.27547"
       width="289.97369"
       id="rect4357"
       style="fill:#808080" />
    <path
       d="M 455.18456,145.39195 A 27.501089,27.498047 0 0 1 427.69655,172.89 27.501089,27.498047 0 0 1 400.1824,145.41811 a 27.501089,27.498047 0 0 1 27.46183,-27.52418 27.501089,27.498047 0 0 1 27.54028,27.44571"
       sodipodi:open="true"
       sodipodi:end="6.2812829"
       sodipodi:start="0"
       sodipodi:ry="27.498047"
       sodipodi:rx="27.501089"
       sodipodi:cy="145.39195"
       sodipodi:cx="427.68347"
       sodipodi:type="arc"
       id="path4361-0"
       style="fill:#808080" />
    <path
       d="M 90.285671,145.78442 A 27.397675,27.498047 0 0 1 62.901027,173.28247 27.397675,27.498047 0 0 1 35.490335,145.81058 27.397675,27.498047 0 0 1 62.848906,118.2864 27.397675,27.498047 0 0 1 90.285622,145.73211"
       sodipodi:open="true"
       sodipodi:end="6.2812829"
       sodipodi:start="0"
       sodipodi:ry="27.498047"
       sodipodi:rx="27.397675"
       sodipodi:cy="145.78442"
       sodipodi:cx="62.887997"
       sodipodi:type="arc"
       id="path4361-0-3"
       style="fill:#808080" />
    <path
       d="m 369.37503,240.48135 a 27.397675,27.498047 0 0 1 -27.38464,27.49805 27.397675,27.498047 0 0 1 -27.4107,-27.47189 27.397675,27.498047 0 0 1 27.35857,-27.52418 27.397675,27.498047 0 0 1 27.43672,27.44571"
       sodipodi:open="true"
       sodipodi:end="6.2812829"
       sodipodi:start="0"
       sodipodi:ry="27.498047"
       sodipodi:rx="27.397675"
       sodipodi:cy="240.48135"
       sodipodi:cx="341.97736"
       sodipodi:type="arc"
       id="path4361-0-6"
       style="fill:#808080" />
    <path
       d="m 174.6609,240.60223 a 27.397675,27.498047 0 0 1 -27.38464,27.49805 27.397675,27.498047 0 0 1 -27.41069,-27.47189 27.397675,27.498047 0 0 1 27.35857,-27.52417 27.397675,27.498047 0 0 1 27.43671,27.4457"
       sodipodi:open="true"
       sodipodi:end="6.2812829"
       sodipodi:start="0"
       sodipodi:ry="27.498047"
       sodipodi:rx="27.397675"
       sodipodi:cy="240.60223"
       sodipodi:cx="147.26323"
       sodipodi:type="arc"
       id="path4361-0-62"
       style="fill:#808080" />
    <path
       d="m 272.49168,240.60225 a 27.397675,27.498047 0 0 1 -27.38464,27.49804 27.397675,27.498047 0 0 1 -27.41069,-27.47188 27.397675,27.498047 0 0 1 27.35857,-27.52418 27.397675,27.498047 0 0 1 27.43671,27.44571"
       sodipodi:open="true"
       sodipodi:end="6.2812829"
       sodipodi:start="0"
       sodipodi:ry="27.498047"
       sodipodi:rx="27.397675"
       sodipodi:cy="240.60225"
       sodipodi:cx="245.09401"
       sodipodi:type="arc"
       id="path4361-0-0"
       style="fill:#808080" />
    <path
       d="M 370.46924,50.464661 A 27.397675,27.498047 0 0 1 343.08459,77.962704 27.397675,27.498047 0 0 1 315.6739,50.490817 27.397675,27.498047 0 0 1 343.03247,22.966642 27.397675,27.498047 0 0 1 370.46919,50.412348"
       sodipodi:open="true"
       sodipodi:end="6.2812829"
       sodipodi:start="0"
       sodipodi:ry="27.498047"
       sodipodi:rx="27.397675"
       sodipodi:cy="50.464661"
       sodipodi:cx="343.07156"
       sodipodi:type="arc"
       id="path4361-0-6-9"
       style="fill:#808080" />
    <path
       d="m 175.75511,50.585541 a 27.397675,27.498047 0 0 1 -27.38464,27.498044 27.397675,27.498047 0 0 1 -27.4107,-27.471888 27.397675,27.498047 0 0 1 27.35858,-27.524175 27.397675,27.498047 0 0 1 27.43671,27.445706"
       sodipodi:open="true"
       sodipodi:end="6.2812829"
       sodipodi:start="0"
       sodipodi:ry="27.498047"
       sodipodi:rx="27.397675"
       sodipodi:cy="50.585541"
       sodipodi:cx="148.35744"
       sodipodi:type="arc"
       id="path4361-0-62-7"
       style="fill:#808080" />
    <path
       d="M 273.58588,50.585556 A 27.397675,27.498047 0 0 1 246.20123,78.0836 27.397675,27.498047 0 0 1 218.79054,50.611712 27.397675,27.498047 0 0 1 246.14911,23.087537 27.397675,27.498047 0 0 1 273.58583,50.533244"
       sodipodi:open="true"
       sodipodi:end="6.2812829"
       sodipodi:start="0"
       sodipodi:ry="27.498047"
       sodipodi:rx="27.397675"
       sodipodi:cy="50.585556"
       sodipodi:cx="246.1882"
       sodipodi:type="arc"
       id="path4361-0-0-6"
       style="fill:#808080" />
  </g>
</svg>
